<?xml version="1.0" encoding="UTF-8"?>
<svg id="Capa_2" data-name="Capa 2" xmlns="http://www.w3.org/2000/svg" viewBox="0 0 414.78 115">
  <defs>
    <style>
      .cls-1 {
        fill: #fff;
      }

      .cls-1, .cls-2 {
        stroke-width: 0px;
      }

      .cls-2 {
        fill: #878787;
      }
    </style>
  </defs>
  <g id="Capa_1-2" data-name="Capa 1">
    <rect class="cls-1" x="174.13" y="22.2" width="10.08" height="50.41"/>
    <polygon class="cls-1" points="235.73 57.49 205.48 22.2 195.39 22.2 195.39 72.62 205.48 72.62 205.48 37.33 235.73 72.62 245.81 72.62 245.81 22.2 235.73 22.2 235.73 57.49"/>
    <polygon class="cls-1" points="251.4 32.29 271.57 32.29 271.57 72.62 281.65 72.62 281.65 32.29 301.82 32.29 301.82 22.2 251.4 22.2 251.4 32.29"/>
    <polygon class="cls-1" points="308.35 32.29 328.52 32.29 328.52 72.62 338.6 72.62 338.6 32.29 358.77 32.29 358.77 22.2 308.35 22.2 308.35 32.29"/>
    <path class="cls-1" d="m404.69,22.2v25.21c0,4.2-1.47,7.77-4.41,10.71-2.94,2.94-6.51,4.41-10.71,4.41s-7.77-1.47-10.71-4.41c-2.94-2.94-4.41-6.51-4.41-10.71v-25.21h-10.08v25.21c0,6.98,2.45,12.93,7.36,17.84,4.91,4.91,10.86,7.37,17.84,7.37s12.93-2.45,17.84-7.37c4.91-4.91,7.36-10.86,7.36-17.84v-25.21h-10.08Z"/>
    <path class="cls-2" d="m178.4,75.83c-3.01-.6-5.81-.2-8.22,1l-7.24-5.48V22.2h-10.08l-20.17,37.81-20.17-37.81h-2.77c-3.93,0-11.93,0-11.93,0l-4.84-6.39c1.04-2.07,1.38-4.49.86-7.09-1.04-4.49-4.84-8.12-9.51-8.64-7.6-.86-14,5.7-12.44,13.31.69,3.8,3.46,7.09,7.09,8.3,2.77,1.04,5.36.86,7.78,0l7.09,9.16h8.59v6.91h-32.27l-13.31-15.56H21.61c-1.73-4.15-5.88-7.09-10.54-6.91C5.19,15.46.18,20.47,0,26.35c-.17,6.22,5.01,11.41,11.23,11.41,4.67,0,8.64-2.94,10.37-6.91h31.28l13.14,15.56h36.42v6.74h-37.11c-1.73-4.15-5.7-6.91-10.37-6.91-6.22,0-11.41,5.19-11.23,11.41.17,5.88,5.01,10.89,11.06,11.06,4.84.17,8.81-2.77,10.54-6.91h37.11v6.74h-36.24l-13.31,15.56h-15.38c-1.73-4.15-5.88-7.09-10.54-6.91-5.88.17-10.89,5.19-11.06,11.06-.17,6.22,5.01,11.41,11.23,11.41,4.67,0,8.64-2.94,10.37-6.91h19.36l13.14-15.56h32.44v6.97h-23.38l-6.74,9.16c-2.25-.86-5.01-1.04-7.78,0-3.63,1.38-6.39,4.49-7.09,8.3-1.38,7.6,4.84,14.35,12.44,13.31,4.67-.52,8.47-4.15,9.51-8.64.52-2.59.17-5.01-.86-7.09l4.84-6.39h19.05s10.08.01,10.08.01v-50.41l15.12,30.25h10.08l15.01-30.02v33.64l10.62,7.82c-1,2.61-1.2,5.81,0,9.02,1.6,4.21,5.21,7.42,9.62,8.22,8.82,1.6,16.64-5.61,15.43-14.43-.6-5.41-4.81-9.82-10.02-11.02ZM82.62,13.56c-1.38.17-2.59-1.04-2.59-2.59,0-1.38,1.21-2.59,2.59-2.59s2.59,1.21,2.59,2.59-1.21,2.59-2.59,2.59ZM11.24,29.11c-1.38,0-2.59-1.21-2.59-2.59s1.21-2.59,2.59-2.59,2.59,1.21,2.59,2.59-1.21,2.59-2.59,2.59Zm43.73,30.94c-1.38,0-2.59-1.21-2.59-2.59s1.21-2.59,2.59-2.59,2.59,1.21,2.59,2.59-1.21,2.59-2.59,2.59Zm-27.83,30.94c-1.38,0-2.59-1.21-2.59-2.59s1.21-2.59,2.59-2.59,2.59,1.21,2.59,2.59-1.04,2.59-2.59,2.59Zm41.39,15.61c-1.38,0-2.59-1.21-2.59-2.59s1.21-2.59,2.59-2.59,2.59,1.21,2.59,2.59-1.21,2.59-2.59,2.59Zm107.27-15.13c-1.6,0-3.01-1.4-3.01-3.01s1.4-3.01,3.01-3.01,3.01,1.4,3.01,3.01-1.4,3.01-3.01,3.01Z"/>
  </g>
</svg>